<?xml version="1.0" encoding="utf-8"?>
<!-- Generator: Adobe Illustrator 28.0.0, SVG Export Plug-In . SVG Version: 6.00 Build 0)  -->
<svg version="1.1" id="Layer_1" xmlns="http://www.w3.org/2000/svg" xmlns:xlink="http://www.w3.org/1999/xlink" x="0px" y="0px"
	 viewBox="0 0 105.7 42" style="enable-background:new 0 0 105.7 42;" xml:space="preserve">
<style type="text/css">
	.st0{fill:#FFFFFF;}
</style>
<path class="st0" d="M85.4,9.7l4.7,7.1V9.7H85.4z M16.3,15.5l3.9-5.9h-3.9V15.5z M13.1,20.4V8c0-0.8,0.3-1.5,1.2-1.5h8L26,0.8
	c0.1-0.2,0.3-0.4,0.6-0.6C26.8,0.1,27,0,27.3,0h50.9c0.3,0,0.5,0.1,0.8,0.3c0.2,0.2,0.4,0.4,0.6,0.6l3.6,5.6h8.7
	c0.4,0,0.8,0.1,1.2,0.4c0.3,0.3,0.5,0.7,0.6,1.1V21c0,0.1,0,0.3,0,0.4l12,18.1c0.1,0.3,0.2,0.5,0.2,0.8s-0.1,0.6-0.2,0.8
	c-0.1,0.3-0.3,0.5-0.6,0.6c-0.2,0.2-0.5,0.2-0.8,0.2H1.6c-0.3,0-0.6-0.1-0.8-0.2c-0.2-0.1-0.4-0.3-0.6-0.6C0.1,40.9,0,40.7,0,40.4
	c0-0.3,0.1-0.6,0.2-0.8L13.1,20.4z M86.8,22.7l4.7,7.7l5,7.8l0.4,0.6h4.1L90.3,22.7L86.8,22.7z M78.6,9.7l6.2,9.7h3.6l-6.6-9.7H78.6
	z M74.4,3.2l2,3.3h3.3l-2.2-3.3H74.4z M53.8,22.6v7.8h35.1L84,22.7L53.8,22.6z M53.8,9.6v9.8h28.1l-6-9.7L53.8,9.6z M20.7,22.6
	l-4.9,7.8h35.9v-7.8L20.7,22.6z M29.1,9.6L23,19.4h28.8V9.7L29.1,9.6z M33.5,3.1l-2.1,3.3h20.4V2.9h2v3.5h20L72,3.7l-0.4-0.6
	L33.5,3.1z M28.8,6.4l2.1-3.2h-2.8L26,6.4L28.8,6.4z M20.4,19.4l6.2-9.7h-2.7l-6.4,9.7H20.4z M7.7,38.9l0.4-0.6l10.1-15.6h-3
	L4.5,38.9H7.7z M10.3,38.9h84l-4-6.3H53.9v6.3h-2.2v-6.3H14.4L10.3,38.9z"/>
</svg>
