<svg xmlns="http://www.w3.org/2000/svg" width="212" height="48" viewBox="0 0 212 48" fill="none">
  <g clip-path="url(#clip0_264_95)">
    <path fill-rule="evenodd" clip-rule="evenodd" d="M48.6295 22.3811C48.661 22.9154 48.6925 23.4498 48.6925 24.0156C48.6925 30.6482 46.2009 36.715 41.8484 41.053C37.496 45.3909 31.2511 47.9999 24.5963 47.9999C11.2865 47.9999 0.5 37.2494 0.5 24.0156C0.5 20.8722 1.09925 17.8545 2.20314 15.1198C4.44245 12.4479 7.75411 8.83292 13.5574 7.22978C22.3885 4.80935 26.0471 10.6247 24.4386 17.6031C22.1993 27.1591 16.1752 28.8565 15.7967 37.0923C15.4182 45.0451 24.5963 47.5598 33.2381 43.7877C33.4904 43.662 34.0581 43.4734 34.3105 43.3477C35.3197 42.8447 36.0451 42.3732 36.9913 41.7759C39.0729 40.4557 40.9338 38.8211 42.5423 36.9351C45.0024 34.0117 46.3586 31.8427 47.3679 28.0706C47.841 26.2475 48.0933 24.1728 48.6295 22.3811Z" fill="#D8DD52"/>
    <path fill-rule="evenodd" clip-rule="evenodd" d="M24.598 0C35.006 0 46.3288 8.48723 48.2527 19.8035C48.1896 19.9293 48.2842 20.6837 48.2527 20.8409C48.1581 21.2181 48.095 21.721 48.0004 22.0982C47.7165 23.1041 47.3696 24.5501 46.9911 25.5246C45.698 28.8251 43.9633 31.8743 41.3455 34.5776C40.4624 35.4892 39.0747 36.6837 38.0969 37.4381C37.1823 38.1297 36.2361 38.664 35.2899 39.3556C27.5942 44.1022 21.8856 41.9646 21.6648 36.8723C21.444 31.78 26.9634 28.7937 28.6666 17.7917C29.9597 9.49312 25.418 2.70334 16.3661 4.24361C10.4998 5.24951 6.55731 8.80157 3.71875 11.9764C7.88198 4.84086 14.1584 0 24.598 0Z" fill="#EBE74E"/>
    <path d="M211.5 12.3851C211.5 13.0138 211.342 13.4853 211.027 13.7996C210.711 14.114 210.238 14.2711 209.608 14.2711C208.977 14.2711 208.504 14.4283 208.188 14.7426C207.873 15.057 207.715 15.5285 207.715 16.1572V23.7328C207.715 24.3615 207.557 24.833 207.242 25.1474C206.927 25.4617 206.454 25.6189 205.823 25.6189C205.192 25.6189 204.719 25.4617 204.404 25.1474C204.088 24.833 203.93 24.3615 203.93 23.7328V16.1886C203.93 15.5599 203.773 15.0884 203.457 14.7741C203.142 14.4597 202.669 14.3026 202.038 14.3026C201.407 14.3026 200.934 14.1454 200.619 13.831C200.303 13.5167 200.146 13.0452 200.146 12.4165C200.146 11.7878 200.303 11.3163 200.619 11.002C200.934 10.6876 201.407 10.5305 202.038 10.5305H209.608C210.238 10.5305 210.711 10.6876 211.027 11.002C211.342 11.2849 211.5 11.7564 211.5 12.3851ZM187.719 12.3851C187.719 11.7564 187.877 11.2849 188.192 10.9705C188.508 10.6562 188.981 10.499 189.611 10.499H197.212C197.843 10.499 198.316 10.6562 198.632 10.9705C198.947 11.2849 199.105 11.7564 199.105 12.3851C199.105 13.0138 198.947 13.4853 198.632 13.7996C198.316 14.114 197.843 14.2711 197.212 14.2711H192.45C191.819 14.2711 191.504 14.5855 191.504 15.2142C191.504 15.8428 191.819 16.1572 192.45 16.1572H195.289C195.919 16.1572 196.392 16.3143 196.708 16.6287C197.023 16.943 197.181 17.4145 197.181 18.0432C197.181 18.6719 197.023 19.1434 196.708 19.4578C196.392 19.7721 195.919 19.9293 195.289 19.9293H192.45C191.819 19.9293 191.504 20.2436 191.504 20.8723C191.504 21.501 191.819 21.8153 192.45 21.8153H197.212C197.843 21.8153 198.316 21.9725 198.632 22.2868C198.947 22.6012 199.105 23.0727 199.105 23.7014C199.105 24.3301 198.947 24.8016 198.632 25.1159C198.316 25.4303 197.843 25.5874 197.212 25.5874H189.611C188.981 25.5874 188.508 25.4303 188.192 25.1159C187.877 24.8016 187.719 24.3301 187.719 23.7014V12.3851ZM184.849 25.6503C184.218 25.6503 183.272 24.7073 182.01 22.8212C180.749 20.9352 179.96 19.9921 179.645 19.9921C179.33 19.9921 179.172 20.3065 179.172 20.9352V23.7642C179.172 24.3929 179.014 24.8644 178.699 25.1788C178.383 25.4931 177.91 25.6503 177.279 25.6503C176.649 25.6503 176.176 25.4931 175.86 25.1788C175.545 24.8644 175.387 24.3929 175.387 23.7642V12.3851C175.387 11.7564 175.545 11.2849 175.86 10.9705C176.176 10.6562 176.649 10.499 177.279 10.499C177.91 10.499 178.856 11.442 180.118 13.3281C181.38 15.2142 182.168 16.1572 182.483 16.1572C182.799 16.1572 182.957 15.8428 182.957 15.2142V12.3851C182.957 11.7564 183.114 11.2849 183.43 10.9705C183.745 10.6562 184.218 10.499 184.849 10.499C185.48 10.499 185.953 10.6562 186.268 10.9705C186.584 11.2849 186.741 11.7564 186.741 12.3851V23.7642C186.741 24.3929 186.584 24.8644 186.268 25.1788C185.953 25.4931 185.48 25.6503 184.849 25.6503ZM170.593 23.7642C170.593 24.3929 170.751 24.8644 171.066 25.1788C171.382 25.4931 171.855 25.6503 172.485 25.6503C173.116 25.6503 173.589 25.4931 173.905 25.1788C174.22 24.8644 174.378 24.3929 174.378 23.7642C174.378 23.1356 174.22 22.6641 173.905 22.3497C173.589 22.0354 173.116 21.8782 172.485 21.8782C171.855 21.8782 171.382 22.0354 171.066 22.3497C170.751 22.6641 170.593 23.1356 170.593 23.7642ZM103.035 12.3851C103.035 13.0138 102.878 13.4853 102.562 13.7996C102.247 14.114 101.774 14.2711 101.143 14.2711C100.512 14.2711 100.039 14.4283 99.7235 14.7426C99.4081 15.057 99.2504 15.5285 99.2504 16.1572V23.7328C99.2504 24.3615 99.0928 24.833 98.7774 25.1474C98.462 25.4617 97.9889 25.6189 97.3581 25.6189C96.7273 25.6189 96.2542 25.4617 95.9388 25.1474C95.6234 24.833 95.4657 24.3615 95.4657 23.7328V16.1886C95.4657 15.5599 95.308 15.0884 94.9926 14.7741C94.6772 14.4597 94.2041 14.3026 93.5733 14.3026C92.9425 14.3026 92.4694 14.1454 92.154 13.831C91.8386 13.5167 91.6809 13.0452 91.6809 12.4165C91.6809 11.7878 91.8386 11.3163 92.154 11.002C92.4694 10.6876 92.9425 10.5305 93.5733 10.5305H101.174C101.805 10.5305 102.278 10.6876 102.594 11.002C102.878 11.2849 103.035 11.7564 103.035 12.3851ZM79.2543 12.3851C79.2543 11.7564 79.412 11.2849 79.7274 10.9705C80.0428 10.6562 80.5159 10.499 81.1467 10.499H88.7478C89.3785 10.499 89.8516 10.6562 90.167 10.9705C90.4824 11.2849 90.6401 11.7564 90.6401 12.3851C90.6401 13.0138 90.4824 13.4853 90.167 13.7996C89.8516 14.114 89.3785 14.2711 88.7478 14.2711H83.9853C83.3545 14.2711 83.0391 14.5855 83.0391 15.2142C83.0391 15.8428 83.3545 16.1572 83.9853 16.1572H86.8238C87.4546 16.1572 87.9277 16.3143 88.2431 16.6287C88.5585 16.943 88.7162 17.4145 88.7162 18.0432C88.7162 18.6719 88.5585 19.1434 88.2431 19.4578C87.9277 19.7721 87.4546 19.9293 86.8238 19.9293H83.9853C83.3545 19.9293 83.0391 20.2436 83.0391 20.8723C83.0391 21.501 83.3545 21.8153 83.9853 21.8153H88.7478C89.3785 21.8153 89.8516 21.9725 90.167 22.2868C90.4824 22.6012 90.6401 23.0727 90.6401 23.7014C90.6401 24.3301 90.4824 24.8016 90.167 25.1159C89.8516 25.4303 89.3785 25.5874 88.7478 25.5874H81.1467C80.5159 25.5874 80.0428 25.4303 79.7274 25.1159C79.412 24.8016 79.2543 24.3301 79.2543 23.7014V12.3851ZM74.4919 23.7642C74.4919 24.3929 74.6496 24.8644 74.9649 25.1788C75.2803 25.4931 75.7534 25.6503 76.3842 25.6503C77.015 25.6503 77.4881 25.4931 77.8035 25.1788C78.1189 24.8644 78.2766 24.3929 78.2766 23.7642V12.3851C78.2766 11.7564 78.1189 11.2849 77.8035 10.9705C77.4881 10.6562 77.015 10.499 76.3842 10.499C75.7534 10.499 75.2803 10.6562 74.9649 10.9705C74.6496 11.2849 74.4919 11.7564 74.4919 12.3851V23.7642ZM71.6533 19.0177C70.3917 22.8212 69.6032 24.8644 69.2878 25.1788C68.9724 25.4931 68.4993 25.6503 67.8685 25.6503C67.2377 25.6503 66.7646 25.4931 66.4493 25.1788C66.1339 24.8644 65.3454 22.8212 64.0838 19.0177C62.8222 15.2142 62.1914 13.0138 62.1914 12.3851C62.1914 11.7564 62.3491 11.2849 62.6645 10.9705C62.9799 10.6562 63.453 10.499 64.0838 10.499C64.7146 10.499 65.1877 10.6562 65.5031 10.9705C65.8185 11.2849 66.1339 12.2279 66.4493 13.7996C66.7646 15.3713 67.2377 16.1572 67.8685 16.1572C68.4993 16.1572 68.9724 15.3713 69.2878 13.7996C69.6032 12.2279 69.9186 11.2849 70.234 10.9705C70.5494 10.6562 71.0225 10.499 71.6533 10.499C72.2841 10.499 72.7572 10.6562 73.0726 10.9705C73.388 11.2849 73.5457 11.7564 73.5457 12.3851C73.5457 13.0138 72.9149 15.2142 71.6533 19.0177Z" fill="#1C9154"/>
    <path d="M169.645 20.9037C169.645 22.1611 169.172 23.2613 168.226 24.2358C167.28 25.1788 165.861 25.6503 163.937 25.6503C162.044 25.6503 160.594 25.1788 159.647 24.2358C158.701 23.2927 158.228 22.5069 158.228 21.8782C158.228 21.2495 158.543 20.778 159.174 20.4637C159.805 20.1493 160.594 20.3065 161.54 20.9352C162.486 21.5639 163.432 21.8782 164.378 21.8782C165.324 21.8782 165.798 21.5639 165.798 20.9352C165.798 20.3065 164.536 19.835 161.981 19.5206C159.458 19.2063 158.165 17.7918 158.165 15.2456C158.165 13.9882 158.638 12.888 159.584 11.9136C160.53 10.9705 161.95 10.499 163.874 10.499C165.766 10.499 167.217 10.9705 168.163 11.9136C169.109 12.8566 169.582 13.6424 169.582 14.2711C169.582 14.8998 169.267 15.3713 168.636 15.6857C168.005 16 167.217 15.8428 166.271 15.2142C165.324 14.5855 164.378 14.2711 163.432 14.2711C162.486 14.2711 162.013 14.5855 162.013 15.2142C162.013 15.8428 163.274 16.3143 165.829 16.6287C168.352 16.9745 169.645 18.389 169.645 20.9037ZM153.466 23.7642C153.466 24.3929 153.623 24.8644 153.939 25.1788C154.254 25.4931 154.727 25.6503 155.358 25.6503C155.989 25.6503 156.462 25.4931 156.777 25.1788C157.093 24.8644 157.25 24.3929 157.25 23.7642V12.3851C157.25 11.7564 157.093 11.2849 156.777 10.9705C156.462 10.6562 155.989 10.499 155.358 10.499C154.727 10.499 154.254 10.6562 153.939 10.9705C153.623 11.2849 153.466 11.7564 153.466 12.3851V23.7642ZM150.595 25.6503C149.965 25.6503 149.018 24.7073 147.757 22.8212C146.495 20.9352 145.707 19.9921 145.391 19.9921C145.076 19.9921 144.918 20.3065 144.918 20.9352V23.7642C144.918 24.3929 144.761 24.8644 144.445 25.1788C144.13 25.4931 143.657 25.6503 143.026 25.6503C142.395 25.6503 141.922 25.4931 141.607 25.1788C141.291 24.8644 141.134 24.3929 141.134 23.7642V12.3851C141.134 11.7564 141.291 11.2849 141.607 10.9705C141.922 10.6562 142.395 10.499 143.026 10.499C143.657 10.499 144.603 11.442 145.864 13.3281C147.126 15.2142 147.915 16.1572 148.23 16.1572C148.545 16.1572 148.703 15.8428 148.703 15.2142V12.3851C148.703 11.7564 148.861 11.2849 149.176 10.9705C149.492 10.6562 149.965 10.499 150.595 10.499C151.226 10.499 151.699 10.6562 152.015 10.9705C152.33 11.2849 152.488 11.7564 152.488 12.3851V23.7642C152.488 24.3929 152.33 24.8644 152.015 25.1788C151.731 25.4931 151.258 25.6503 150.595 25.6503ZM138.232 25.6503C137.601 25.6503 136.655 24.7073 135.393 22.8212C134.132 20.9352 133.343 19.9921 133.028 19.9921C132.712 19.9921 132.555 20.3065 132.555 20.9352V23.7642C132.555 24.3929 132.397 24.8644 132.082 25.1788C131.766 25.4931 131.293 25.6503 130.662 25.6503C130.032 25.6503 129.559 25.4931 129.243 25.1788C128.928 24.8644 128.77 24.3929 128.77 23.7642V12.3851C128.77 11.7564 128.928 11.2849 129.243 10.9705C129.559 10.6562 130.032 10.499 130.662 10.499C131.293 10.499 132.239 11.442 133.501 13.3281C134.763 15.2142 135.551 16.1572 135.866 16.1572C136.182 16.1572 136.34 15.8428 136.34 15.2142V12.3851C136.34 11.7564 136.497 11.2849 136.813 10.9705C137.128 10.6562 137.601 10.499 138.232 10.499C138.863 10.499 139.336 10.6562 139.651 10.9705C139.967 11.2849 140.124 11.7564 140.124 12.3851V23.7642C140.124 24.3929 139.967 24.8644 139.651 25.1788C139.336 25.4931 138.863 25.6503 138.232 25.6503ZM116.375 12.3851C116.375 11.7564 116.533 11.2849 116.848 10.9705C117.163 10.6562 117.637 10.499 118.267 10.499H125.868C126.499 10.499 126.972 10.6562 127.288 10.9705C127.603 11.2849 127.761 11.7564 127.761 12.3851C127.761 13.0138 127.603 13.4853 127.288 13.7996C126.972 14.114 126.499 14.2711 125.868 14.2711H121.106C120.475 14.2711 120.16 14.5855 120.16 15.2142C120.16 15.8428 120.475 16.1572 121.106 16.1572H123.944C124.575 16.1572 125.048 16.3143 125.364 16.6287C125.679 16.943 125.837 17.4145 125.837 18.0432C125.837 18.6719 125.679 19.1434 125.364 19.4578C125.048 19.7721 124.575 19.9293 123.944 19.9293H121.106C120.475 19.9293 120.16 20.2436 120.16 20.8723C120.16 21.501 120.475 21.8153 121.106 21.8153H125.868C126.499 21.8153 126.972 21.9725 127.288 22.2868C127.603 22.6012 127.761 23.0727 127.761 23.7014C127.761 24.3301 127.603 24.8016 127.288 25.1159C126.972 25.4303 126.499 25.5874 125.868 25.5874H118.267C117.637 25.5874 117.163 25.4303 116.848 25.1159C116.533 24.8016 116.375 24.3301 116.375 23.7014V12.3851ZM115.397 12.3851C115.397 13.0138 115.24 13.4853 114.924 13.7996C114.609 14.114 114.136 14.2711 113.505 14.2711C112.874 14.2711 112.401 14.4283 112.086 14.7426C111.77 15.057 111.612 15.5285 111.612 16.1572V23.7328C111.612 24.3615 111.455 24.833 111.139 25.1474C110.824 25.4617 110.351 25.6189 109.72 25.6189C109.089 25.6189 108.616 25.4617 108.301 25.1474C107.985 24.833 107.828 24.3615 107.828 23.7328V16.1886C107.828 15.5599 107.67 15.0884 107.355 14.7741C107.039 14.4597 106.566 14.3026 105.935 14.3026C105.305 14.3026 104.831 14.1454 104.516 13.831C104.201 13.5167 104.043 13.0452 104.043 12.4165C104.043 11.7878 104.201 11.3163 104.516 11.002C104.831 10.6876 105.305 10.5305 105.935 10.5305H113.536C114.167 10.5305 114.64 10.6876 114.956 11.002C115.24 11.2849 115.397 11.7564 115.397 12.3851Z" fill="#C1D352"/>
    <path d="M205.16 32.8488C204.466 32.8488 203.898 33.1003 203.425 33.5718C202.952 34.0433 202.731 34.6406 202.731 35.3007C202.731 35.9608 202.952 36.5266 203.425 36.9981C203.898 37.4697 204.466 37.6897 205.128 37.6897C205.822 37.6897 206.358 37.4382 206.831 36.9667C207.273 36.4952 207.525 35.8979 207.525 35.2064C207.525 34.5463 207.273 33.9805 206.8 33.5089C206.327 33.0689 205.791 32.8488 205.16 32.8488ZM205.16 32.0315C206.011 32.0315 206.768 32.3459 207.399 32.9746C208.03 33.6033 208.345 34.3577 208.345 35.2064C208.345 36.0866 208.03 36.8724 207.399 37.5011C206.768 38.1612 206.011 38.4755 205.128 38.4755C204.245 38.4755 203.488 38.1612 202.826 37.5325C202.195 36.9038 201.848 36.1494 201.848 35.2693C201.848 34.3577 202.164 33.6033 202.794 32.9746C203.488 32.3459 204.245 32.0315 205.16 32.0315ZM197.401 32.8488C196.707 32.8488 196.139 33.1003 195.635 33.5718C195.13 34.0433 194.909 34.6091 194.909 35.3007C194.909 35.9922 195.162 36.5581 195.635 36.9981C196.139 37.4697 196.707 37.6897 197.401 37.6897C198.063 37.6897 198.6 37.4382 199.073 36.9667C199.546 36.4952 199.798 35.9294 199.798 35.3007C199.798 34.6091 199.577 34.0119 199.104 33.5404C198.663 33.0689 198.095 32.8488 197.401 32.8488ZM200.587 32.1573V38.3498H199.798V37.1867C199.577 37.6268 199.23 37.9412 198.82 38.1612C198.379 38.3812 197.906 38.507 197.401 38.507C196.928 38.507 196.455 38.3812 195.95 38.1612C195.477 37.9412 195.036 37.5954 194.657 37.1553C194.531 36.9981 194.405 36.7781 194.279 36.4323C194.121 36.0237 194.058 35.615 194.058 35.175C194.058 34.7977 194.152 34.4205 194.31 34.0119C194.436 33.6661 194.594 33.4146 194.72 33.2889C195.162 32.8174 195.603 32.4716 196.045 32.283C196.486 32.0944 196.928 31.9687 197.401 31.9687C197.906 31.9687 198.379 32.0944 198.82 32.3144C199.262 32.5345 199.577 32.8488 199.83 33.2889V32.1258H200.587V32.1573ZM192.071 36.5266H192.986C192.702 37.1239 192.292 37.6268 191.755 37.9726C191.219 38.3184 190.62 38.507 189.958 38.507C189.012 38.507 188.223 38.1926 187.561 37.5954C186.898 36.9667 186.551 36.1809 186.551 35.2693C186.551 34.3577 186.867 33.6033 187.529 32.9746C188.191 32.3459 188.98 32.0315 189.895 32.0315C190.589 32.0315 191.188 32.2201 191.755 32.5659C192.323 32.9117 192.702 33.4146 192.954 34.0433H192.039C191.819 33.6976 191.535 33.3832 191.156 33.1632C190.778 32.9431 190.368 32.8488 189.958 32.8488C189.264 32.8488 188.665 33.0689 188.16 33.5404C187.655 33.9805 187.435 34.5777 187.435 35.2378C187.435 35.9294 187.687 36.5266 188.16 36.9981C188.633 37.4697 189.232 37.7211 189.926 37.7211C190.399 37.7211 190.778 37.6268 191.156 37.4382C191.472 37.2182 191.787 36.9353 192.071 36.5266ZM176.616 38.3498V29.9883H177.468V33.0689C177.626 32.7545 177.91 32.5031 178.257 32.3144C178.603 32.1258 178.982 32.0315 179.36 32.0315C179.77 32.0315 180.149 32.1258 180.527 32.283C180.874 32.4402 181.19 32.6602 181.442 32.9746C181.694 33.2575 181.884 33.6033 181.978 33.9805C182.073 34.2948 182.104 34.672 182.104 35.1121V38.3498H181.253V35.1121C181.253 34.7034 181.221 34.3891 181.158 34.2005C181.095 33.9805 181 33.7919 180.874 33.6347C180.717 33.3832 180.464 33.1946 180.18 33.0689C179.897 32.9431 179.581 32.8803 179.266 32.8803C178.982 32.8803 178.698 32.9431 178.414 33.1003C178.13 33.226 177.91 33.4146 177.752 33.6347C177.626 33.8233 177.531 34.0433 177.5 34.2634C177.468 34.5148 177.436 34.7978 177.436 35.1435V38.3498H176.616ZM169.678 38.3498V32.1887H170.466V33.1003C170.939 32.4088 171.602 32.063 172.39 32.063C172.8 32.063 173.21 32.1573 173.589 32.3144C173.967 32.5031 174.283 32.7545 174.598 33.1003C174.819 33.3832 174.976 33.6661 175.039 33.9805C175.103 34.2948 175.166 34.672 175.166 35.1435V38.3498H174.314V35.1121C174.314 34.7034 174.283 34.3891 174.219 34.2005C174.156 34.0119 174.062 33.8233 173.936 33.6661C173.557 33.1317 173.021 32.8803 172.327 32.8803C172.043 32.8803 171.759 32.9431 171.475 33.0689C171.192 33.1946 170.971 33.3832 170.813 33.6033C170.687 33.7919 170.592 34.0119 170.561 34.2634C170.529 34.5148 170.498 34.7977 170.498 35.1121V38.3498H169.678ZM167.123 29.9883H166.429L166.461 29.8311C166.492 29.5482 166.65 29.2968 166.902 29.1396C167.06 29.0453 167.218 28.951 167.375 28.9196C167.565 28.8881 167.754 28.8567 167.943 28.8567C168.353 28.8567 168.7 28.951 168.952 29.1396C169.205 29.3282 169.331 29.5797 169.331 29.9254C169.331 30.2398 169.173 30.4913 168.889 30.7427C168.826 30.8056 168.7 30.837 168.542 30.8999C168.385 30.9628 168.29 30.9942 168.258 31.0571C168.195 31.0885 168.132 31.1199 168.101 31.1514C168.069 31.1514 168.038 31.1828 168.038 31.2457V31.6858H167.438V31.2771C167.438 31.1514 167.47 31.0256 167.502 30.9313C167.533 30.837 167.628 30.7427 167.722 30.6799C167.88 30.5856 168.038 30.4598 168.195 30.3655C168.322 30.2712 168.385 30.2084 168.416 30.1455C168.448 30.0826 168.479 30.0512 168.479 30.0198C168.511 29.9883 168.511 29.9569 168.511 29.894C168.511 29.8311 168.479 29.7683 168.448 29.7054C168.448 29.674 168.416 29.6425 168.353 29.5797C168.29 29.5168 168.227 29.4854 168.101 29.4539C168.006 29.4225 167.88 29.4225 167.754 29.4225C167.628 29.4225 167.533 29.4539 167.47 29.4854C167.407 29.5168 167.344 29.5482 167.281 29.5797C167.249 29.6111 167.249 29.6425 167.218 29.7368C167.186 29.7997 167.155 29.894 167.123 29.9883ZM167.312 32.1573H168.164V38.3498H167.312V32.1573ZM164.947 35.2378C164.947 34.5463 164.694 33.9805 164.221 33.5404C163.748 33.1003 163.149 32.8488 162.487 32.8488C161.824 32.8488 161.257 33.0689 160.784 33.5404C160.31 34.0119 160.058 34.5777 160.058 35.2378C160.058 35.9294 160.31 36.4952 160.784 36.9667C161.257 37.4382 161.856 37.6897 162.518 37.6897C163.181 37.6897 163.78 37.4382 164.253 36.9667C164.694 36.4952 164.947 35.8979 164.947 35.2378ZM165.767 31.4657V38.3498H164.978V37.2182C164.379 38.0669 163.528 38.507 162.487 38.507C162.014 38.507 161.604 38.4127 161.162 38.1926C160.752 38.004 160.31 37.6583 159.869 37.2182C159.711 37.061 159.554 36.8095 159.427 36.4638C159.27 36.0551 159.175 35.6465 159.175 35.2378C159.175 34.3262 159.49 33.5718 160.153 32.9431C160.815 32.3459 161.572 32.0315 162.487 32.0315C162.96 32.0315 163.433 32.1258 163.874 32.3459C164.316 32.5659 164.663 32.8488 164.884 33.2575V31.4657H162.771V30.7113H164.884V29.9883H165.735V30.7113H166.177V31.4657H165.767ZM153.813 29.9883H154.665V31.4029H153.813V29.9883ZM153.813 32.1573H154.665V38.3498H153.813V32.1573ZM147.821 31.0571L149.776 29.5797L150.502 30.1769L148.168 31.3714L147.821 31.0571ZM151.322 33.1317C151.448 33.1003 151.511 33.0374 151.574 32.9746C151.7 32.8488 151.763 32.7231 151.795 32.5345C151.826 32.3773 151.858 32.1887 151.858 31.9687H151.069V31.0571H152.394V31.2457V31.4972C152.394 31.6858 152.394 31.9058 152.362 32.1258C152.362 32.3773 152.299 32.5974 152.205 32.8488C152.11 33.0689 151.952 33.2575 151.732 33.3832L151.606 33.4775C151.952 34.0119 152.11 34.5777 152.11 35.175C152.11 36.0551 151.795 36.841 151.164 37.4697C150.533 38.1298 149.776 38.4441 148.893 38.4441C148.01 38.4441 147.253 38.1298 146.591 37.5011C145.96 36.8724 145.613 36.118 145.613 35.2378C145.613 34.3262 145.928 33.5718 146.559 32.9431C147.19 32.3144 147.947 32.0001 148.862 32.0001C149.335 32.0001 149.776 32.0944 150.186 32.283C150.659 32.5031 151.006 32.786 151.322 33.1317ZM148.893 32.8488C148.199 32.8488 147.632 33.1003 147.158 33.5718C146.685 34.0433 146.465 34.6406 146.465 35.3007C146.465 35.9608 146.685 36.5266 147.158 36.9981C147.632 37.4697 148.199 37.6897 148.862 37.6897C149.555 37.6897 150.092 37.4382 150.565 36.9667C151.006 36.4952 151.227 35.8979 151.227 35.2064C151.227 34.5463 150.975 33.9805 150.502 33.5089C150.092 33.0689 149.524 32.8488 148.893 32.8488ZM142.68 38.3498V32.9431H141.387V32.1887H142.68V30.0198H143.531V32.1887H144.982V32.9431H143.531V38.3498H142.68ZM131.736 38.3498V32.1887H132.524V33.1003C132.997 32.4088 133.66 32.063 134.448 32.063C134.858 32.063 135.268 32.1573 135.646 32.3144C136.025 32.5031 136.34 32.7545 136.656 33.1003C136.877 33.3832 137.034 33.6661 137.097 33.9805C137.16 34.2948 137.223 34.672 137.223 35.1435V38.3498H136.372V35.1121C136.372 34.7034 136.34 34.3891 136.277 34.2005C136.214 34.0119 136.12 33.8233 135.993 33.6661C135.615 33.1317 135.079 32.8803 134.385 32.8803C134.101 32.8803 133.817 32.9431 133.533 33.0689C133.249 33.1946 133.029 33.3832 132.871 33.6033C132.745 33.7919 132.65 34.0119 132.619 34.2634C132.587 34.5148 132.556 34.7977 132.556 35.1121V38.3498H131.736ZM129.686 33.1317C129.812 33.1003 129.875 33.0374 129.938 32.9746C130.064 32.8488 130.127 32.7231 130.159 32.5345C130.19 32.3773 130.222 32.1887 130.222 31.9687H129.433V31.0571H130.758V31.2457V31.4972C130.758 31.6858 130.758 31.9058 130.726 32.1258C130.726 32.3773 130.663 32.5974 130.569 32.8488C130.474 33.0689 130.316 33.2575 130.096 33.3832L129.969 33.4775C130.316 34.0119 130.474 34.5777 130.474 35.175C130.474 36.0551 130.159 36.841 129.528 37.4697C128.897 38.1298 128.14 38.4441 127.257 38.4441C126.374 38.4441 125.617 38.1298 124.955 37.5011C124.324 36.8724 123.977 36.118 123.977 35.2378C123.977 34.3262 124.292 33.5718 124.923 32.9431C125.554 32.3144 126.311 32.0001 127.225 32.0001C127.699 32.0001 128.14 32.0944 128.55 32.283C129.023 32.5031 129.402 32.786 129.686 33.1317ZM127.288 32.8488C126.595 32.8488 126.027 33.1003 125.554 33.5718C125.081 34.0433 124.86 34.6406 124.86 35.3007C124.86 35.9608 125.081 36.5266 125.554 36.9981C126.027 37.4697 126.595 37.6897 127.257 37.6897C127.951 37.6897 128.487 37.4382 128.96 36.9667C129.402 36.4952 129.654 35.8979 129.654 35.2064C129.654 34.5463 129.402 33.9805 128.929 33.5089C128.455 33.0689 127.919 32.8488 127.288 32.8488ZM122.715 33.2575V38.3498H121.864V37.3754C121.674 37.7526 121.359 38.0355 120.981 38.2241C120.602 38.4127 120.161 38.507 119.656 38.507C119.214 38.507 118.836 38.4127 118.457 38.2555C118.079 38.0983 117.7 37.784 117.322 37.3754C117.133 37.1867 117.007 36.9353 116.975 36.6524C116.912 36.338 116.88 35.9294 116.88 35.4579V32.1887H117.795V35.4579C117.795 35.7408 117.827 35.9922 117.858 36.2123C117.89 36.4323 117.984 36.6209 118.11 36.8095C118.268 37.0924 118.52 37.3125 118.836 37.4697C119.151 37.6268 119.467 37.7211 119.845 37.7211C120.539 37.7211 121.075 37.4697 121.485 36.9667C121.643 36.7781 121.738 36.5581 121.801 36.3066C121.864 36.0551 121.895 35.7722 121.895 35.4893V32.2201H122.81V32.8174C122.873 32.786 122.936 32.7545 122.999 32.6917C123.125 32.5659 123.188 32.4402 123.22 32.2516C123.251 32.0944 123.283 31.9058 123.283 31.6858H122.431V30.8056H123.725V31.1199V31.4343V31.6858V31.8429C123.725 32.1258 123.693 32.3459 123.598 32.5659C123.504 32.7545 123.378 32.9431 123.188 33.0689C122.968 33.1632 122.841 33.226 122.715 33.2575ZM111.676 38.3498L108.207 30.0198H109.122L112.023 37.3439L114.988 30.0198H115.903L112.433 38.3498H111.676Z" fill="#1C9154"/>
  </g>
  <defs>
    <clipPath id="clip0_264_95">
      <rect width="211" height="48" fill="white" transform="translate(0.5)"/>
    </clipPath>
  </defs>
</svg>