<?xml version="1.0" encoding="utf-8"?>
<!-- Generator: Adobe Illustrator 28.0.0, SVG Export Plug-In . SVG Version: 6.00 Build 0)  -->
<svg version="1.1" id="Layer_1" xmlns="http://www.w3.org/2000/svg" xmlns:xlink="http://www.w3.org/1999/xlink" x="0px" y="0px"
	 viewBox="0 0 989.9 108" style="enable-background:new 0 0 989.9 108;" xml:space="preserve">
<style type="text/css">
	.st0{fill:#424242;}
	.st1{fill:#2DA56B;}
	.st2{fill:#FFFFFF;}
</style>
<g>
	<g>
		<path class="st0" d="M13.8,25.9l16.5,41.2l-4.8-1l15.4-40.2h9.9l-23.5,55l-23.4-55C3.9,25.9,13.8,25.9,13.8,25.9z"/>
		<path class="st0" d="M60.6,36.9c0-1.2,0.5-2.2,1.4-3c1-0.8,2-1.2,3.2-1.2s2.2,0.4,3.1,1.2s1.4,1.9,1.4,3.1c0,1.2-0.5,2.2-1.4,3
			s-2,1.2-3.1,1.2S63,40.8,62.1,40C61.1,39.2,60.6,38.2,60.6,36.9z M61,47.9h8.1v30.5H61V47.9z"/>
		<path class="st0" d="M96.4,79.3c-3.5,0-6.6-0.7-9.1-2.1c-2.6-1.4-4.5-3.3-5.9-5.8c-1.3-2.5-2-5.3-2-8.4s0.8-5.8,2.3-8.3
			s3.6-4.4,6.2-5.9s5.5-2.2,8.7-2.2c4.2,0,7.6,1.2,10.4,3.6c2.7,2.4,4.5,5.9,5.5,10.3l-24.6,8.3l-1.8-4.5l19.1-6.9l-1.6,1
			c-0.5-1.5-1.4-2.8-2.6-3.9c-1.2-1.1-2.9-1.6-5-1.6c-1.7,0-3.2,0.4-4.5,1.2s-2.3,1.9-3.1,3.4c-0.7,1.4-1.1,3.1-1.1,4.9
			c0,2.1,0.4,3.8,1.2,5.3c0.8,1.5,1.9,2.6,3.3,3.4s3,1.2,4.8,1.2c1.3,0,2.5-0.2,3.6-0.6c1.2-0.4,2.2-1,3.2-1.7l3.7,6
			c-1.6,1-3.3,1.8-5.2,2.4C100,79,98.2,79.3,96.4,79.3z"/>
		<path class="st0" d="M125.2,34.5h8.1v13.4h7.9v6.3h-7.9v24.3h-8.1V54.2h-5.3v-6.3h5.3V34.5z"/>
		<path class="st0" d="M153.9,34.5h8.1v13.4h7.9v6.3H162v24.3h-8.1V54.2h-5.3v-6.3h5.3V34.5z"/>
		<path class="st0" d="M194.2,79.3c-3.5,0-6.6-0.7-9.1-2.1c-2.6-1.4-4.5-3.3-5.9-5.8c-1.3-2.5-2-5.3-2-8.4s0.8-5.8,2.3-8.3
			s3.6-4.4,6.2-5.9c2.6-1.5,5.5-2.2,8.7-2.2c4.2,0,7.6,1.2,10.4,3.6c2.7,2.4,4.5,5.9,5.5,10.3l-24.6,8.3l-1.8-4.5l19.1-6.9l-1.6,1
			c-0.5-1.5-1.4-2.8-2.6-3.9c-1.2-1.1-2.9-1.6-5-1.6c-1.7,0-3.2,0.4-4.5,1.2s-2.3,1.9-3.1,3.4c-0.7,1.4-1.1,3.1-1.1,4.9
			c0,2.1,0.4,3.8,1.2,5.3s1.9,2.6,3.3,3.4c1.4,0.8,3,1.2,4.8,1.2c1.3,0,2.5-0.2,3.6-0.6c1.2-0.4,2.2-1,3.2-1.7l3.7,6
			c-1.6,1-3.3,1.8-5.2,2.4C197.8,79,196,79.3,194.2,79.3z"/>
		<path class="st0" d="M227.3,47.9l0.7,6.6l-0.2-0.9c1-2.1,2.6-3.8,4.7-5.1c2.1-1.3,4.6-1.9,7.5-1.9c2.8,0,5.2,0.9,7.1,2.6
			c1.9,1.7,2.9,3.9,2.9,6.5v22.7h-8.1V58.7c0-1.5-0.5-2.8-1.3-3.7s-2.1-1.4-3.9-1.5c-1.6,0-3.1,0.5-4.4,1.5c-1.3,1-2.3,2.3-3,4
			s-1,3.7-1,6v13.5h-8.2V47.9H227.3z"/>
		<path class="st0" d="M270.2,47.9l0.7,6.6l-0.2-0.9c1-2.1,2.6-3.8,4.7-5.1s4.6-1.9,7.5-1.9c2.8,0,5.2,0.9,7.1,2.6
			c1.9,1.7,2.9,3.9,2.9,6.5v22.7h-8.1V58.7c0-1.5-0.5-2.8-1.3-3.7s-2.1-1.4-3.9-1.5c-1.6,0-3.1,0.5-4.4,1.5s-2.3,2.3-3,4s-1,3.7-1,6
			v13.5h-8.1V47.9H270.2z"/>
		<path class="st0" d="M305.5,36.9c0-1.2,0.5-2.2,1.4-3c1-0.8,2-1.2,3.2-1.2s2.2,0.4,3.1,1.2s1.4,1.9,1.4,3.1c0,1.2-0.5,2.2-1.4,3
			s-2,1.2-3.1,1.2s-2.2-0.4-3.2-1.2C306,39.2,305.5,38.2,305.5,36.9z M305.8,47.9h8.1v30.5h-8.1V47.9z"/>
		<path class="st0" d="M336,79.1c-2.3,0-4.5-0.4-6.6-1.2c-2.1-0.8-3.8-2-5.2-3.5l3.4-4.6c1.3,1.3,2.7,2.2,4,2.8
			c1.3,0.6,2.6,0.9,3.8,0.9c0.9,0,1.7-0.1,2.5-0.3c0.7-0.2,1.3-0.6,1.8-1c0.4-0.5,0.6-1.1,0.6-1.9c0-1-0.3-1.8-1-2.3s-1.5-1-2.6-1.3
			c-1.1-0.4-2.2-0.7-3.3-1.1c-2.6-0.8-4.6-2-5.9-3.6s-1.9-3.4-1.9-5.6c0-1.5,0.4-3.1,1.2-4.5c0.8-1.5,2.1-2.7,3.7-3.6
			s3.8-1.4,6.4-1.4c2.3,0,4.3,0.3,6,0.8s3.3,1.4,4.8,2.5l-3.1,4.9c-0.9-0.8-1.9-1.5-3.1-1.9c-1.2-0.5-2.3-0.7-3.2-0.8
			c-0.9,0-1.6,0.1-2.3,0.4c-0.7,0.3-1.2,0.7-1.7,1.1c-0.4,0.5-0.6,1-0.6,1.6c0,1,0.3,1.7,1,2.3s1.6,1,2.8,1.4
			c1.1,0.3,2.2,0.7,3.3,1.1c1.5,0.5,2.8,1.1,3.9,1.8s2,1.6,2.7,2.7s1,2.5,1,4c0,1.8-0.5,3.5-1.4,5.1s-2.3,2.9-4.1,3.9
			C341.1,78.7,338.8,79.1,336,79.1z"/>
		<path class="st0" d="M400.6,25.9c2.9,0,5.5,0.4,7.9,1.2c2.4,0.8,4.4,1.9,6.1,3.3s3,3.2,3.9,5.2c0.9,2.1,1.4,4.5,1.4,7.2
			c0,2.1-0.3,4.1-0.9,6.2c-0.6,2.1-1.6,3.9-3.1,5.6c-1.4,1.7-3.3,3-5.6,4c-2.3,1-5.2,1.5-8.5,1.5h-7.7v18.3h-8.4V25.9H400.6z
			 M401.7,52.1c1.8,0,3.4-0.3,4.6-0.9c1.3-0.6,2.2-1.3,3-2.2c0.7-0.9,1.2-1.9,1.6-2.9c0.3-1,0.5-2,0.5-2.9s-0.1-1.8-0.4-2.9
			c-0.3-1-0.8-2-1.5-3s-1.6-1.7-2.9-2.3c-1.2-0.6-2.7-0.9-4.5-0.9h-7.8v18.1L401.7,52.1L401.7,52.1z M410.8,57.2l13.4,21.3h-9.8
			l-13.6-21.1L410.8,57.2z"/>
		<path class="st0" d="M447.1,79.3c-2.9,0-5.5-0.6-7.8-1.8c-2.3-1.2-4.2-3-5.5-5.4s-2-5.3-2-8.8c0-3.5,0.7-6.4,2.1-8.9
			c1.4-2.5,3.3-4.4,5.6-5.7c2.3-1.3,4.9-2,7.6-2c2.9,0,5.3,0.6,7.1,1.7c1.8,1.2,3.2,2.5,4.3,4.1l-0.4,1.2l0.8-5.6h7.5v30.5h-8.3
			v-7.4l0.8,1.9c-0.2,0.3-0.6,0.8-1.1,1.4c-0.6,0.6-1.3,1.4-2.4,2.1c-1,0.8-2.2,1.4-3.6,1.9S448.9,79.3,447.1,79.3z M449.3,72.6
			c1.4,0,2.8-0.3,4-0.8s2.2-1.3,3-2.2c0.8-1,1.4-2.2,1.8-3.5v-6.6c-0.4-1.3-1-2.3-1.9-3.3c-0.9-0.9-2-1.7-3.2-2.2s-2.6-0.8-4-0.8
			c-1.7,0-3.2,0.4-4.6,1.2s-2.5,1.9-3.3,3.4s-1.2,3.1-1.2,5c0,1.8,0.4,3.5,1.3,5s2,2.7,3.4,3.5C446,72.2,447.6,72.6,449.3,72.6z"/>
		<path class="st0" d="M486.5,47.9l0.7,6.6l-0.2-0.9c1-2.1,2.6-3.8,4.7-5.1s4.6-1.9,7.5-1.9c2.8,0,5.2,0.9,7.1,2.6
			c1.9,1.7,2.9,3.9,2.9,6.5v22.7h-8.1V58.7c0-1.5-0.5-2.8-1.3-3.7s-2.1-1.4-3.9-1.5c-1.6,0-3.1,0.5-4.4,1.5s-2.3,2.3-3,4s-1,3.7-1,6
			v13.5h-8.1V47.9H486.5z"/>
		<path class="st0" d="M522.2,78.5V22.2h8.1v56.3H522.2z M527.8,69.3l-0.8-7.8l18.6-14.3l4.9,4.3L527.8,69.3z M537.8,57.9l13.9,20.6
			h-9.4l-9.9-15.9L537.8,57.9z"/>
		<path class="st0" d="M561,36.9c0-1.2,0.5-2.2,1.4-3c1-0.8,2-1.2,3.2-1.2s2.2,0.4,3.1,1.2c0.9,0.8,1.4,1.9,1.4,3.1
			c0,1.2-0.5,2.2-1.4,3s-2,1.2-3.1,1.2s-2.2-0.4-3.2-1.2C561.5,39.2,561,38.2,561,36.9z M561.4,47.9h8.1v30.5h-8.1V47.9z"/>
		<path class="st0" d="M589.6,47.9l0.7,6.6l-0.2-0.9c1-2.1,2.6-3.8,4.7-5.1c2.1-1.3,4.6-1.9,7.5-1.9c2.8,0,5.2,0.9,7.1,2.6
			c1.9,1.7,2.9,3.9,2.9,6.5v22.7h-8.1V58.7c0-1.5-0.5-2.8-1.3-3.7s-2.1-1.4-3.9-1.5c-1.6,0-3.1,0.5-4.4,1.5c-1.3,1-2.3,2.3-3,4
			s-1,3.7-1,6v13.5h-8.1V47.9H589.6z"/>
		<path class="st0" d="M640.4,93.8c-2.5,0-4.6-0.3-6.4-0.9c-1.8-0.6-3.4-1.4-4.7-2.3c-1.4-0.9-2.6-1.9-3.8-3l4.7-5.6
			c1.4,1.3,2.9,2.4,4.4,3.3c1.6,0.9,3.5,1.3,5.7,1.3c2,0,3.7-0.3,5.2-1s2.6-1.6,3.5-2.8c0.8-1.2,1.2-2.7,1.2-4.4l0.1-7.7l0.5,1.6
			c-0.9,1.9-2.4,3.5-4.5,4.8s-4.8,2-8.1,2c-2.8,0-5.4-0.7-7.7-2.1c-2.4-1.4-4.2-3.3-5.6-5.8c-1.4-2.4-2.1-5.2-2.1-8.3
			c0-3.2,0.7-6,2.2-8.5s3.4-4.4,5.8-5.8c2.4-1.4,5-2.1,7.7-2.1s5.1,0.5,7.2,1.4c2.1,1,3.7,2.2,4.7,3.6l-0.4,1.2l0.9-4.8h7.4v30.6
			c0,2.9-0.8,5.5-2.3,7.7c-1.5,2.3-3.6,4.1-6.3,5.5S644,93.8,640.4,93.8z M630.9,62.8c0,1.8,0.4,3.5,1.3,5c0.8,1.5,2,2.7,3.5,3.5
			s3.1,1.3,4.9,1.3c1.6,0,3-0.3,4.3-0.8s2.4-1.3,3.3-2.2c0.9-1,1.6-2.1,2.1-3.4v-6.7c-0.4-1.3-1.1-2.4-2-3.3c-0.9-1-2-1.7-3.4-2.2
			c-1.3-0.5-2.8-0.8-4.3-0.8c-1.8,0-3.5,0.4-4.9,1.2c-1.5,0.8-2.6,1.9-3.5,3.4C631.3,59.3,630.9,60.9,630.9,62.8z"/>
		<path class="st0" d="M680.4,79.1c-2.3,0-4.5-0.4-6.6-1.2c-2.1-0.8-3.8-2-5.2-3.5l3.4-4.6c1.3,1.3,2.7,2.2,4,2.8
			c1.3,0.6,2.6,0.9,3.8,0.9c0.9,0,1.7-0.1,2.5-0.3c0.7-0.2,1.3-0.6,1.8-1c0.4-0.5,0.7-1.1,0.7-1.9c0-1-0.3-1.8-1-2.3
			c-0.6-0.5-1.5-1-2.6-1.3c-1.1-0.4-2.2-0.7-3.3-1.1c-2.6-0.8-4.6-2-5.9-3.6c-1.3-1.6-2-3.4-2-5.6c0-1.5,0.4-3.1,1.2-4.5
			c0.8-1.5,2.1-2.7,3.7-3.6c1.7-0.9,3.8-1.4,6.4-1.4c2.3,0,4.3,0.3,6,0.8s3.3,1.4,4.8,2.5l-3.1,4.9c-0.9-0.8-1.9-1.5-3.1-1.9
			c-1.2-0.5-2.3-0.7-3.2-0.8c-0.9,0-1.6,0.1-2.3,0.4c-0.7,0.3-1.2,0.7-1.7,1.1c-0.4,0.5-0.7,1-0.7,1.6c0,1,0.3,1.7,1,2.3
			s1.6,1,2.8,1.4c1.1,0.3,2.2,0.7,3.3,1.1c1.5,0.5,2.8,1.1,3.9,1.8c1.1,0.7,2,1.6,2.7,2.7s1,2.5,1,4c0,1.8-0.5,3.5-1.4,5.1
			s-2.3,2.9-4.1,3.9C685.6,78.7,683.3,79.1,680.4,79.1z"/>
	</g>
</g>
<polygon class="st1" points="989.9,0 938.2,83.8 927.3,101.5 923.3,108 734.9,108 734.9,0 "/>
<polygon class="st2" points="737.2,7.6 771.1,7.7 763.4,12.7 788.7,62.8 813.8,12.8 806,7.7 840.1,7.7 788.7,101.8 "/>
<polygon class="st1" points="954.9,103 926.3,103.3 925.9,102.8 937.2,85.2 "/>
<path class="st2" d="M955.6,36.6c0,8-2.6,14.7-7.8,20.7c-5.2,5.8-11.7,8.6-19.9,8.6h-9.8l19.1,19.3l-11,18l-48.1-53.4h45.6
	c3.3,0,6.1-1.2,8.2-3.6c2.1-2.3,3.1-5.1,3.1-8.3s-1-6-3-8.3c-2.1-2.4-4.8-3.6-8.1-3.6H869l-0.1,68.8v0.1l10.4,6.9h-31.1h-0.1
	l0.2-76.2V14.8L838.2,8h10.3V7.9H928c8.3,0,14.9,2.8,20,8.4C953.2,22,955.7,28.7,955.6,36.6z"/>
<polygon class="st2" points="848.3,101.7 848.5,25.5 814.2,25.5 803.4,34 821.9,7.6 913.6,7.7 906,25.3 903.8,25.5 869.1,25.5 
	869,94.7 879.5,101.8 "/>
</svg>
