<?xml version="1.0" encoding="utf-8"?>
<!-- Generator: Adobe Illustrator 28.0.0, SVG Export Plug-In . SVG Version: 6.00 Build 0)  -->
<svg version="1.1" id="Layer_1" xmlns="http://www.w3.org/2000/svg" xmlns:xlink="http://www.w3.org/1999/xlink" x="0px" y="0px"
	 viewBox="0 0 255 108" style="enable-background:new 0 0 255 108;" xml:space="preserve">
<style type="text/css">
	.st0{fill:#00BC59;}
	.st1{fill:#FFFFFF;}
</style>
<g>
	<polygon class="st0" points="255,0 203.3,83.8 192.4,101.5 188.4,108 0,108 0,0 	"/>
	<polygon class="st1" points="2.3,7.6 36.2,7.7 28.5,12.7 53.8,62.8 78.9,12.8 71.1,7.7 105.2,7.7 53.8,101.8 	"/>
	<polygon class="st0" points="220,103 191.4,103.3 191,102.8 202.3,85.2 	"/>
	<path class="st1" d="M220.7,36.6c0,8-2.6,14.7-7.8,20.7c-5.2,5.8-11.7,8.6-19.9,8.6h-9.8l19.1,19.3l-11,18l-48.1-53.4h45.6
		c3.3,0,6.1-1.2,8.2-3.6c2.1-2.3,3.1-5.1,3.1-8.3s-1-6-3-8.3c-2.1-2.4-4.8-3.6-8.1-3.6h-54.9L134,94.8v0.1l10.4,6.9h-31.1h-0.1
		l0.2-76.2V14.8L103.3,8h10.3V7.9h79.5c8.3,0,14.9,2.8,20,8.4C218.3,22,220.8,28.7,220.7,36.6z"/>
	<polygon class="st1" points="113.4,101.7 113.6,25.5 79.3,25.5 68.5,34 87,7.6 178.7,7.7 171.1,25.3 168.9,25.5 134.2,25.5 
		134.1,94.7 144.6,101.8 	"/>
</g>
</svg>
